Coordinates
nRows=327
nColumns=2
inDegrees=yes
endheader
time	ankle_angle_r	
4.59073	  9.513228	
4.62399	  9.475708	
4.65726	  9.535103	
4.69052	  9.482420	
4.72379	  9.506226	
4.75706	  9.506226	
4.79032	  9.573683	
4.82359	  9.494685	
4.85685	  9.536743	
4.89012	  9.497099	
4.92339	  9.490967	
4.95665	  9.469769	
4.98992	  9.433506	
5.02319	  9.456681	
5.05645	  9.445190	
5.08972	  9.454897	
5.12298	  9.439735	
5.15625	  9.464991	
5.18952	  9.506226	
5.22278	  9.424767	
5.25605	  9.429932	
5.28931	  9.475708	
5.32258	  9.445824	
5.35585	  9.521484	
5.38911	  9.419354	
5.42238	  9.353638	
5.45565	  9.419162	
5.48891	  9.495358	
5.52218	  9.438522	
5.55544	  9.445190	
5.58871	  9.513281	
5.62198	  9.490967	
5.65524	  9.521484	
5.68851	  9.506226	
5.72177	  9.487251	
5.75504	  9.472090	
5.78831	  9.418195	
5.82157	  9.395989	
5.85484	  9.487638	
5.8881	  9.502994	
5.92137	  9.460449	
5.95464	  9.472670	
5.9879	  9.460449	
6.02117	  9.457604	
6.05444	  9.371645	
6.0877	  9.460449	
6.12097	  9.445190	
6.15423	  9.513600	
6.1875	  9.501503	
6.22077	  9.401679	
6.25403	  9.506226	
6.2873	  9.515270	
6.32056	  9.456500	
6.35383	  9.460449	
6.3871	  9.472145	
6.42036	  9.445190	
6.45363	  9.533567	
6.4869	  9.460449	
6.52016	  9.457660	
6.55343	  9.548108	
6.58669	  9.442788	
6.61996	  9.459345	
6.65323	  9.443174	
6.68649	  9.445190	
6.71976	  9.427488	
6.75302	  9.490249	
6.78629	  9.399414	
6.81956	  9.445715	
6.85282	  9.430360	
6.88609	  9.460118	
6.91935	  9.445425	
6.95262	  9.536192	
6.98589	  9.429809	
7.01915	  9.460394	
7.05242	  9.460602	
7.08569	  9.399165	
7.11895	  9.428894	
7.15222	  9.505783	
7.18548	  9.429932	
7.21875	  9.415944	
7.25202	  9.493164	
7.28528	  9.399414	
7.31855	  9.415599	
7.35181	  9.416718	
7.38508	  9.475708	
7.41835	  9.461665	
7.45161	  9.520172	
7.48488	  9.443781	
7.51815	  9.458943	
7.55141	  9.489365	
7.58468	  9.506226	
7.61794	  9.458653	
7.65121	  9.506226	
7.68448	  9.500257	
7.71774	  9.488881	
7.75101	  9.493150	
7.78427	  9.458170	
7.81754	  9.470956	
7.85081	  9.495913	
7.88407	  9.490967	
7.91734	  9.463116	
7.9506	  9.506226	
7.98387	  9.496686	
8.01714	  9.472752	
8.0504	  9.503173	
8.08367	  9.475708	
8.11694	  9.487720	
8.1502	  9.533401	
8.18347	  9.460449	
8.21673	  9.475708	
8.25	  9.529477	
8.28327	  9.490967	
8.31653	  9.475708	
8.3498	  9.475708	
8.38306	  9.483747	
8.41633	  9.513251	
8.4496	  9.506226	
8.48286	  9.434241	
8.51613	  9.501819	
8.5494	  9.512478	
8.58266	  9.460449	
8.61593	  9.409976	
8.64919	  9.470915	
8.68246	  9.414673	
8.71573	  9.485980	
8.74899	  9.460449	
8.78226	  9.475708	
8.81552	  9.531466	
8.84879	  9.521484	
8.88206	  9.429932	
8.91532	  9.460449	
8.94859	  9.479640	
8.98185	  9.469948	
9.01512	  9.490967	
9.04839	  9.475708	
9.08165	  9.445190	
9.11492	  9.484820	
9.14819	  9.460449	
9.18145	  9.469368	
9.21472	  9.499788	
9.24798	  9.458258	
9.28125	  9.460449	
9.31452	  9.460449	
9.34778	  9.492579	
9.38105	  9.423011	
9.41431	  9.460449	
9.44758	  9.461480	
9.48085	  9.429093	
9.51411	  9.483015	
9.54738	  9.529340	
9.58065	  9.490967	
9.61391	  9.452916	
9.64718	  9.513790	
9.68044	  9.528953	
9.71371	  9.483080	
9.74698	  9.498951	
9.78024	  9.467628	
9.81351	  9.490967	
9.84677	  9.460449	
9.88004	  9.407784	
9.91331	  9.506226	
9.94657	  9.506226	
9.97984	  9.514886	
10.0131	  9.499724	
10.0464	  9.558407	
10.0796	  9.466757	
10.1129	  9.557674	
10.1462	  9.475708	
10.1794	  9.439173	
10.2127	  9.466371	
10.246	  9.464059	
10.2792	  9.445190	
10.3125	  9.515853	
10.3458	  9.506226	
10.379	  9.490967	
10.4123	  9.516908	
10.4456	  9.470464	
10.4788	  9.485819	
10.5121	  9.511382	
10.5454	  9.490967	
10.5786	  9.394556	
10.6119	  9.475708	
10.6452	  9.415938	
10.6784	  9.451314	
10.7117	  9.414673	
10.745	  9.414673	
10.7782	  9.414673	
10.8115	  9.471527	
10.8448	  9.388240	
10.878	  9.453166	
10.9113	  9.506226	
10.9446	  9.460449	
10.9778	  9.468313	
11.0111	  9.414673	
11.0444	  9.411169	
11.0776	  9.433339	
11.1109	  9.406035	
11.1442	  9.387369	
11.1774	  9.475708	
11.2107	  9.460449	
11.244	  9.432856	
11.2772	  9.457622	
11.3105	  9.445190	
11.3437	  9.460449	
11.377	  9.452837	
11.4103	  9.458009	
11.4435	  9.460449	
11.4768	  9.416920	
11.5101	  9.475708	
11.5433	  9.403522	
11.5766	  9.323120	
11.6099	  9.506226	
11.6431	  9.416436	
11.6764	  9.399414	
11.7097	  9.458879	
11.7429	  9.414673	
11.7762	  9.352261	
11.8095	  9.398133	
11.8427	  9.429932	
11.876	  9.428844	
11.9093	  9.490967	
11.9425	  9.398520	
11.9758	  9.400211	
12.0091	  9.475708	
12.0423	  9.445190	
12.0756	  9.461463	
12.1089	  9.414673	
12.1421	  9.429618	
12.1754	  9.430148	
12.2087	  9.460569	
12.2419	  9.445167	
12.2752	  9.384082	
12.3085	  9.521315	
12.3417	  9.429665	
12.375	  9.428478	
12.4083	  9.459990	
12.4415	  9.445190	
12.4748	  9.460449	
12.5081	  9.460449	
12.5413	  9.460449	
12.5746	  9.474765	
12.6079	  9.552002	
12.6411	  9.490967	
12.6744	  9.503758	
12.7077	  9.536743	
12.7409	  9.490967	
12.7742	  9.548955	
12.8075	  9.535123	
12.8407	  9.504509	
12.874	  9.548375	
12.9073	  9.555822	
12.9405	  9.504219	
12.9738	  9.549898	
13.0071	  9.538943	
13.0403	  9.523782	
13.0736	  9.547215	
13.1069	  9.562280	
13.1401	  9.518897	
13.1734	  9.559210	
13.2067	  9.561700	
13.2399	  9.503348	
13.2732	  9.567261	
13.3065	  9.582520	
13.3397	  9.497301	
13.373	  9.536743	
13.4062	  9.543465	
13.4395	  9.536743	
13.4728	  9.582520	
13.506	  9.544701	
13.5393	  9.506226	
13.5726	  9.559690	
13.6058	  9.578579	
13.6391	  9.460449	
13.6724	  9.510360	
13.7056	  9.532513	
13.7389	  9.456121	
13.7722	  9.469297	
13.8054	  9.464970	
13.8387	  9.440573	
13.872	  9.434646	
13.9052	  9.506226	
13.9385	  9.440283	
13.9718	  9.465453	
14.005	  9.526586	
14.0383	  9.470510	
14.0716	  9.455779	
14.1048	  9.425455	
14.1381	  9.456165	
14.1714	  9.471618	
14.2046	  9.466130	
14.2379	  9.408895	
14.2712	  9.485092	
14.3044	  9.481679	
14.3377	  9.408605	
14.371	  9.484802	
14.4042	  9.481969	
14.4375	  9.490967	
14.4708	  9.453995	
14.504	  9.488811	
14.5373	  9.458487	
14.5706	  9.460449	
14.6038	  9.421515	
14.6371	  9.399414	
14.6704	  9.459260	
14.7036	  9.413676	
14.7369	  9.392186	
14.7702	  9.490357	
14.8034	  9.406836	
14.8367	  9.384155	
14.87	  9.460449	
14.9032	  9.376444	
14.9365	  9.353638	
14.9698	  9.467803	
15.003	  9.376898	
15.0363	  9.422771	
15.0696	  9.429932	
15.1028	  9.445190	
15.1361	  9.400931	
15.1694	  9.477419	
15.2026	  9.467127	
15.2359	  9.445190	
15.2692	  9.519194	
15.3024	  9.469321	
15.3357	  9.436222	
15.369	  9.475708	
15.4022	  9.436028	
15.4355	  9.411415	
